<?xml version="1.0" encoding="utf-8"?>
<!-- Generator: Adobe Illustrator 27.5.0, SVG Export Plug-In . SVG Version: 6.00 Build 0)  -->
<svg version="1.1" id="Layer_1" xmlns="http://www.w3.org/2000/svg" xmlns:xlink="http://www.w3.org/1999/xlink" x="0px" y="0px"
	 viewBox="0 0 3071.827 2000" style="enable-background:new 0 0 3071.827 2000;" xml:space="preserve">
<rect x="0" y="0" style="fill:#FFFFFF;" width="3071.827" height="2000"/>
<g>
	<path style="fill:#FEEFDC;" d="M206.774,1620.523c73.28-137.11,59.54-130.259,25.19-254.083
		c-34.35-123.824-96.18-451.63,77.86-720.755s396.169-303.524,503.798-271.148c107.63,32.376,194.649,84.987,380.139,4.047
		s643.488-319.712,982.407-180.091s260.989,311.357,380.068,410.508c119.08,99.151,231.544,174.685,297.63,416.156
		c67.587,246.956,15.394,680.697-138.781,817.842l-2405.26,8.689C309.824,1851.689,133.494,1757.634,206.774,1620.523
		L206.774,1620.523z"/>
	<circle style="fill:#FECC86;" cx="1980.306" cy="486.724" r="23"/>
	<circle style="fill:#FECC86;" cx="2035.546" cy="364.224" r="10"/>
	<g>
		<circle style="fill:#FECC86;" cx="800.817" cy="454.224" r="23"/>
		<circle style="fill:#FECC86;" cx="285.45" cy="941.317" r="23"/>
		<circle style="fill:#FECC86;" cx="746.817" cy="541.224" r="10"/>
		<circle style="fill:#FECC86;" cx="407.513" cy="806.292" r="10"/>
		<circle style="fill:#FECC86;" cx="1427.975" cy="364.224" r="10"/>
		<circle style="fill:#FECC86;" cx="1514.766" cy="454.224" r="18"/>
		<circle style="fill:#FECC86;" cx="2314.833" cy="407.224" r="23"/>
		<circle style="fill:#FECC86;" cx="2691.756" cy="820.137" r="10"/>
		<circle style="fill:#FECC86;" cx="2781.727" cy="871.657" r="18"/>
	</g>
	<rect x="188.948" y="1839" style="fill:#21111D;" width="2680.258" height="8"/>
	<g>
		<g>
			<g>
				<g>
					<rect x="1174.243" y="1235.224" style="fill:#49263E;" width="280.172" height="586.975"/>
				</g>
				<g>
					<path style="fill:#49263E;" d="M2158.097,1448.566V644.48c0-38.205-30.971-69.177-69.177-69.177H529.871
						c-38.205,0-69.177,30.971-69.177,69.177v804.086H2158.097z"/>
				</g>
				<g>
					<path style="fill:#3A1F33;" d="M460.694,1442.566v133.211c0,27.708,17.716,50.171,39.569,50.171h1618.264
						c21.854,0,39.57-22.462,39.57-50.171v-133.211H460.694z"/>
				</g>
				<g>
					<g>
						<path style="fill:#E8F2FC;" d="M2118.365,1413.648V646.627c0-20.106-16.886-36.405-37.717-36.405H538.144
							c-20.831,0-37.717,16.299-37.717,36.405v767.021H2118.365z"/>
					</g>
				</g>
				<g>
					<rect x="1765.5" y="660.807" style="opacity:0.6;fill:#9BC1F9;" width="97.384" height="751.067"/>
					<rect x="1629.498" y="889.901" style="opacity:0.6;fill:#9BC1F9;" width="97.384" height="521.974"/>
					<rect x="1886.96" y="823.533" style="opacity:0.6;fill:#9BC1F9;" width="97.384" height="588.341"/>
					<rect x="1493.496" y="800.395" style="opacity:0.6;fill:#9BC1F9;" width="97.384" height="611.479"/>
					<rect x="1357.494" y="981.696" style="opacity:0.6;fill:#9BC1F9;" width="97.384" height="430.179"/>
					<g>
						<rect x="1765.5" y="833.907" style="opacity:0.3;fill:#9BC1F9;" width="97.384" height="577.967"/>
						<rect x="1629.498" y="1010.201" style="opacity:0.3;fill:#9BC1F9;" width="97.384" height="401.674"/>
						<rect x="1886.96" y="959.129" style="opacity:0.3;fill:#9BC1F9;" width="97.384" height="452.745"/>
						<rect x="1493.496" y="941.324" style="opacity:0.3;fill:#9BC1F9;" width="97.384" height="470.55"/>
						<rect x="1357.494" y="1080.84" style="opacity:0.3;fill:#9BC1F9;" width="97.384" height="331.034"/>
					</g>
					<polygon style="fill:#5183BF;" points="2048.176,666.554 1970.577,725.031 2000.178,726.911 1814.94,1051.756 
						1712.375,898.539 1567.286,1235.75 1473.961,1103.673 1327.92,1309.371 1346.482,1322.73 1473.912,1144.117 1572.561,1283.729 
						1717.118,947.756 1816.632,1096.416 2021.713,736.777 2040.752,757.179 					"/>
				</g>
				<g>
					<path style="fill:#3A1F33;" d="M1693.31,1838.948c4.756-27.741-13.877-50.23-41.618-50.23H977.446
						c-27.741,0-54.086,22.489-58.842,50.23v0L1693.31,1838.948z"/>
				</g>
				<g>
					<path style="fill:#21111D;" d="M2118.528,1627.975H500.264c-22.937,0-41.597-22.68-41.597-50.556V644.481
						c0-39.262,31.941-71.205,71.204-71.205v4.056c-37.025,0-67.148,30.123-67.148,67.149v932.939c0,25.64,16.842,46.5,37.541,46.5
						h1618.265V1627.975z"/>
				</g>
				<g>
					<path style="fill:#21111D;" d="M2120.392,1415.675H500.426v-4.056h1615.91V646.627c0-18.956-16.01-34.377-35.688-34.377v-4.056
						c21.915,0,39.743,17.241,39.743,38.433V1415.675z"/>
				</g>
			</g>
			<g>
				<g>
					<path style="fill:#FE9F73;" d="M1440.421,697.669c0,0,11.019-41.174,21.085-45.495c10.066-4.321,21.297,2.909,21.297,2.909
						s10.771-14.7,18.108-13.3c7.337,1.4,9.122,7.967,9.122,7.967s12.977,1.377,14.288,12.038c0,0,10.203,2.472,10.075,10.848
						c0,0,5.262,2.387,4.923,12.534c0,0-17.512,34.24-43.246,46.366C1470.341,743.663,1440.421,697.669,1440.421,697.669z"/>
				</g>
				<g>
					<path style="fill:#EF3A4C;" d="M1207.005,1413.648l3.059-291.463l-6.558-37.437l-159.033,57.076
						c0,0,4.898,123.203,15.214,271.823H1207.005z"/>
				</g>
				<g>
					<path style="fill:#FF424D;" d="M1084.884,1413.648l17.872-205.593l30.226-150.051l-205.603,87.471
						c0,0-1.469,121.05,1.03,268.173H1084.884z"/>
				</g>
				<g>
					<path d="M1085.165,1415.896c-0.041,0-0.083-0.001-0.125-0.005c-0.826-0.068-1.44-0.792-1.372-1.618
						c0.063-0.755,6.294-76.367,12.708-150.155c0.072-0.825,0.804-1.439,1.624-1.364c0.825,0.071,1.436,0.799,1.364,1.624
						c-6.414,73.781-12.645,149.387-12.707,150.142C1086.594,1415.303,1085.938,1415.896,1085.165,1415.896z"/>
				</g>
				<rect x="918.392" y="1411.62" style="fill:#21111D;" width="300.972" height="4.056"/>
				<g>
					<polygon style="fill:#683D46;" points="1396.348,490.712 1563.615,769.35 1549.693,779.931 1417.238,534.368 					"/>
				</g>
				<g>
					<path style="fill:#FE9F73;" d="M1481.571,654.2c0,0,7.398-7.641,11.842-9.917c4.444-2.276,30.909,46.412,30.909,46.412
						l3.833,12.031c0,0-3.388,6.363-5.581,6.102c-2.193-0.261-8.823-5.325-8.823-5.325l-1.723-6.642l-2.671-0.745l-3.483-3.215
						l-1.729-5.269l-3.707,1.671l-5.272-2.088l-2.432-4.911l-1.043-0.476l-15.701-25.24L1481.571,654.2z"/>
				</g>
				<g>
					<path style="fill:#F07162;" d="M1491.219,682.73c-2.341,0-5.031-1.613-7.822-3.288c-1.95-1.171-3.97-2.382-6.053-3.202
						c-6.174-2.435-8.999-1.375-9.022-1.364c-0.439,0.175-0.94-0.035-1.118-0.472c-0.18-0.435,0.019-0.931,0.452-1.116
						c0.135-0.058,3.383-1.382,10.32,1.349c2.216,0.874,4.296,2.121,6.307,3.328c4.373,2.622,7.146,4.124,9.012,2.063
						c1.654-1.833,2.379-4.003,2.154-6.451c-0.479-5.216-5.402-11.876-13.169-17.811c-9.557-7.306-17.962-3.697-18.319-3.541
						c-0.427,0.192-0.943-0.002-1.137-0.435s-0.002-0.942,0.432-1.137c0.39-0.176,9.665-4.209,20.069,3.744
						c8.262,6.316,13.307,13.249,13.838,19.022c0.271,2.946-0.6,5.558-2.591,7.761
						C1493.575,682.289,1492.445,682.73,1491.219,682.73z"/>
				</g>
				<g>
					<path style="fill:#FFFFFF;" d="M1423.993,688.203l6.211-7.798c0,0,55.123,15.498,75.078,60.691l-8.732,11.769
						C1496.55,752.866,1456.238,702.563,1423.993,688.203z"/>
				</g>
				<g>
					<path style="fill:#FFD970;" d="M1227.212,1163.607l1.011-1.318l-5.288-296.598c0,0,97.552,65.428,126.787,66.681
						c29.235,1.253,150.111-178.165,150.111-178.165c-25.476-58.47-79.111-66.574-79.111-66.574l-99.817,109.423l-116.941-106.082
						c-15.592-9.467-135.456-11.515-135.456-11.515s-136.431-3.103-152.023,6.364c-15.592,9.467-72.949,165.387-81.858,236.108
						c-8.91,70.721,0,116.523,54.015,124.876l19.649,0.417l1.512,116.384C909.802,1163.607,1018.668,1188.109,1227.212,1163.607
						L1227.212,1163.607z"/>
				</g>
				<g>
					<g>
						<path style="fill:#49263E;" d="M1180.781,1067.966h-118.444c-7.498,0-13.576-6.078-13.576-13.576v-157.03
							c0-7.498,6.078-13.576,13.576-13.576h118.444c7.498,0,13.576,6.078,13.576,13.576v157.03
							C1194.357,1061.888,1188.279,1067.966,1180.781,1067.966z"/>
					</g>
					<g>
						<path style="fill:#E2F2F1;" d="M1158.517,876.824h-67.818c-3.844,0-6.961,3.116-6.961,6.961l0,0h81.74l0,0
							C1165.478,879.941,1162.362,876.824,1158.517,876.824z"/>
					</g>
				</g>
				<g>
					<g>
						<g>
							<g>
								<g>
									<path style="fill:#FE9F73;" d="M1197.841,978.614c15.729-13.858-0.751-16.19-0.751-16.19
										c7.678-8.305,5.893-12.18,3.072-13.966c-2.065-1.308-4.659-1.452-6.937-0.567c-7.232,2.809-29.283,11.46-42.754,17.684
										c-9.578-0.679-6.523-16.824-2.239-25.097c2.207-4.263,2.36-11.303-8.034-4.212c-8.493,5.794-21.255,24.872-21.255,24.872
										l-53.379-5.13l7.953,73.559c0,0,60.933-0.852,70.115-0.917c9.181-0.065,39.928-10.534,49.215-18.618
										c16.851-14.669,6.251-15.417,6.251-15.417C1215.175,977.738,1197.841,978.614,1197.841,978.614z"/>
								</g>
							</g>
						</g>
					</g>
					<g>
						<g>
							<g>
								<g>
									<g>
										<path style="fill:#F07162;" d="M1177.826,974.568c-0.464,0.036-0.919-0.225-1.106-0.68
											c-0.233-0.563,0.036-1.208,0.599-1.441c7.901-3.26,19.036-10.858,19.147-10.935c0.503-0.343,1.19-0.214,1.535,0.287
											c0.345,0.504,0.216,1.191-0.287,1.535c-0.464,0.317-11.437,7.804-19.554,11.152
											C1178.05,974.533,1177.938,974.559,1177.826,974.568z"/>
									</g>
								</g>
							</g>
						</g>
					</g>
					<g>
						<g>
							<g>
								<g>
									<g>
										<path style="fill:#F07162;" d="M1178.92,988.506c-0.52,0.041-1.011-0.292-1.152-0.815
											c-0.158-0.589,0.192-1.193,0.78-1.352c10.043-2.697,18.578-8.574,18.663-8.633c0.503-0.349,1.19-0.222,1.536,0.276
											c0.348,0.501,0.224,1.189-0.276,1.536c-0.36,0.25-8.923,6.151-19.351,8.953
											C1179.054,988.489,1178.986,988.501,1178.92,988.506z"/>
									</g>
								</g>
							</g>
						</g>
					</g>
					<g>
						<g>
							<g>
								<g>
									<g>
										<path style="fill:#F07162;" d="M1182.613,1004.208c-0.507,0.04-0.99-0.277-1.143-0.784
											c-0.175-0.583,0.157-1.199,0.741-1.374c8.603-2.579,16.145-8.258,16.22-8.316c0.485-0.37,1.178-0.273,1.547,0.213
											c0.368,0.485,0.273,1.178-0.213,1.547c-0.319,0.242-7.938,5.979-16.921,8.672
											C1182.767,1004.189,1182.691,1004.202,1182.613,1004.208z"/>
									</g>
								</g>
							</g>
						</g>
					</g>
				</g>
				<g>
					<polygon style="fill:#21111D;" points="938.199,942.178 935.976,939.548 957.705,921.177 965.999,820.44 969.432,820.723 
						961.02,922.886 					"/>
				</g>
				<g>
					<path style="fill:#21111D;" d="M908.253,1048.945l-19.874-0.437c-26.512-4.099-43.507-17.236-51.958-40.156
						c-7.332-19.886-8.445-47.415-3.504-86.636l3.417,0.43c-10.071,79.939,5.128,115.569,52.459,122.942l19.534,0.414
						L908.253,1048.945z"/>
				</g>
				<g>
					<path style="fill:#FFFFFF;" d="M1099.27,938.45h10.723c0,0,11.416,73.412-4.176,107.102h-13.333
						C1092.484,1045.553,1108.038,976.688,1099.27,938.45z"/>
				</g>
				<g>
					<path style="fill:#FFD970;" d="M1043.198,927.4l53.709,3.439c0,0,10.859,34.247-2.191,103.683
						c-1.267,6.743-3.934,18.269-3.934,18.269s-54.537,4.347-63.097-13.368c-5.375-11.124,6.377-59.177,6.377-59.177L1043.198,927.4
						z"/>
				</g>
				<g>
					<path style="fill:#21111D;" d="M1092.107,1054.556l-183.869-5.611l0.104-3.444l181.098,5.527
						c2.588-10.715,19.171-82.825,6.243-118.541l-136.43-8.738l0.219-3.437l138.643,8.88l0.397,1.027
						c15.062,39.043-5.194,119.588-6.063,122.998L1092.107,1054.556z"/>
				</g>
				<g>
					<path style="fill:#21111D;" d="M1322.113,826.322l-2.857-28.438l-113.239-102.724c-8.299-7.528-24.432-7.628-24.594-7.628
						v-3.443c0,0,0,0,0.002,0c0.733,0,17.619,0.098,26.905,8.521l114.221,103.613l2.988,29.755L1322.113,826.322z"/>
				</g>
				<g>
					<path style="fill:#21111D;" d="M1322.177,798.214l-2.546-2.32l100.445-110.112l0.921,0.15
						c0.533,0.087,53.633,9.372,80.397,67.554l-3.127,1.439c-24.076-52.335-69.944-63.934-76.928-65.417L1322.177,798.214z"/>
				</g>
				<g>
					<path style="fill:#FFFFFF;" d="M1133.237,681.819c-33-3.335-63.945-5.337-63.945-5.337s-25.568,0.868-58.108,2.509
						c-0.002,0.181-0.014,0.36-0.014,0.541c0,33.724,27.339,61.062,61.062,61.062
						C1105.189,740.594,1132.032,714.482,1133.237,681.819z"/>
				</g>
				<g>
					<path style="fill:#21111D;" d="M1096.852,1175.551c-1.026,0-2.03-0.005-3.02-0.015l0.034-3.444
						c43.048,0.459,119.807-8.59,131.603-10.009l-4.267-324.909l3.443-0.045l4.308,327.998l-1.53,0.188
						C1226.577,1165.419,1144.083,1175.55,1096.852,1175.551z"/>
				</g>
				<g>
					<path style="fill:#21111D;" d="M1035.811,743.804c-17.339-10.806-29.925-27.539-35.443-47.116l3.316-0.935
						c5.283,18.75,17.34,34.777,33.95,45.128L1035.811,743.804z"/>
				</g>
				<g>
					<g>
						<path style="fill:#FE9F73;" d="M1049.044,555.818c0,0,24.325-10.346,45.922-2.922c12.505,4.299,20.812,16.188,20.812,29.412
							v12.931l-66.566-28.426c0,0-10.528,4.98-9.684,3.467C1040.373,568.768,1049.044,555.818,1049.044,555.818z"/>
					</g>
					<g>
						<g>
							<g>
								<g>
									<path style="fill:#FE9F73;" d="M1115.772,580.853v54.534c0,0,0.812,19.485-16.237,21.92l3.183,25.997
										c1.183,9.663-4.595,18.915-13.876,21.853c-4.538,1.437-9.955,2.486-16.099,2.486c-19.485,0-30.039-14.614-31.663-21.921
										c-1.624-7.307,3.248-42.217,3.248-42.217l-0.594-17.154l2.217-66.468L1115.772,580.853z"/>
								</g>
							</g>
						</g>
						<g>
							<g>
								<g>
									<path style="fill:#E23E3D;" d="M1068.729,606.566c-0.202,0-0.405-0.075-0.562-0.227c-0.323-0.31-0.334-0.824-0.024-1.147
										c0.112-0.117,11.278-11.539,21.482-3.317c0.349,0.281,0.404,0.792,0.123,1.141c-0.281,0.35-0.792,0.405-1.142,0.123
										c-9.042-7.284-18.878,2.747-19.292,3.178C1069.155,606.482,1068.942,606.566,1068.729,606.566z"/>
								</g>
							</g>
						</g>
						<g>
							<g>
								<g>
									<path style="fill:#E23E3D;" d="M1102.196,601.695c-0.227,0-0.453-0.095-0.614-0.281c-0.293-0.339-0.257-0.851,0.081-1.145
										c0.327-0.284,8.072-6.907,12.968-2.708c0.34,0.292,0.38,0.804,0.088,1.144c-0.292,0.342-0.804,0.38-1.145,0.088
										c-3.836-3.289-10.778,2.643-10.848,2.704C1102.574,601.63,1102.385,601.695,1102.196,601.695z"/>
								</g>
							</g>
						</g>
						<g>
							<g>
								<g>
									<path d="M1085.147,609.847c0,1.345-1.09,2.435-2.436,2.435c-1.345,0-2.436-1.09-2.436-2.435s1.09-2.436,2.436-2.436
										C1084.056,607.412,1085.147,608.502,1085.147,609.847z"/>
								</g>
							</g>
						</g>
						<g>
							<g>
								<g>
									<path d="M1111.036,607.412c0,1.345-1.09,2.436-2.436,2.436c-1.345,0-2.436-1.091-2.436-2.436
										c0-1.345,1.09-2.436,2.436-2.436C1109.946,604.976,1111.036,606.067,1111.036,607.412z"/>
								</g>
							</g>
						</g>
						<g>
							<g>
								<g>
									<path style="fill:#E23E3D;" d="M1049.044,554.967c0,0-20.624-0.99-25.856,17.051c-5.232,18.042,3.685,27.579,3.865,32.958
										c0.18,5.379-3.467,41.642,21.991,38.936l6.875-59.898l-8.861-23.847L1049.044,554.967z"/>
								</g>
							</g>
						</g>
						<g>
							<g>
								<g>
									<circle style="fill:#FE9F73;" cx="1050.417" cy="609.002" r="14.614"/>
								</g>
							</g>
						</g>
						<g>
							<g>
								<g>
									<path style="fill:#F07162;" d="M1049.336,617.957c-3.036,0-5.063-2.282-5.731-4.562c-0.79-2.697,0.115-5.318,2.306-6.677
										c3.236-2.009,6.17-0.72,7.673,0.269c-0.631-1.659-1.62-2.866-2.95-3.598c-2.879-1.585-6.45-0.43-6.486-0.419
										c-0.213,0.071-0.443-0.044-0.513-0.258c-0.071-0.213,0.044-0.442,0.257-0.513c0.159-0.053,3.934-1.278,7.128,0.475
										c1.844,1.012,3.098,2.804,3.728,5.324l0.353,1.414l-1.034-1.028c-0.146-0.146-3.621-3.525-7.729-0.977
										c-2.274,1.411-2.474,3.985-1.954,5.759c0.54,1.843,2.158,3.979,4.949,3.979c0.028,0,0.054-0.002,0.084-0.001
										c0.221,0,0.402,0.178,0.406,0.4c0.003,0.224-0.176,0.408-0.4,0.411C1049.393,617.956,1049.364,617.957,1049.336,617.957z"
										/>
								</g>
							</g>
						</g>
						<g>
							<g>
								<g>
									<path style="fill:#F07162;" d="M1060.009,640.755c0,0,1.143,32.613,41.874,35.727l-2.348-19.174
										C1099.535,657.308,1073.119,662.615,1060.009,640.755z"/>
								</g>
							</g>
						</g>
						<g>
							<g>
								<path style="fill:#E23E3D;" d="M1118.6,626.216c0,0,5.309,39.037-20.612,40.424c-37.091,1.984-40.683-19.184-42.887-36.504
									l-0.372-35.748l1.191-10.374v0c2.622,2.965,4.223,6.685,4.576,10.627c0.768,8.573,2.667,31.667,4.807,32.689
									C1068.324,628.774,1112.827,622.456,1118.6,626.216z"/>
							</g>
						</g>
						<g>
							<g>
								<g>
									<path style="fill:#F07162;" d="M1093.738,626.276c-0.17,0-0.329-0.108-0.385-0.278c-0.071-0.213,0.045-0.443,0.258-0.513
										l8.138-2.691l-2.571-19.151c-0.03-0.222,0.126-0.427,0.348-0.456c0.224-0.036,0.427,0.126,0.456,0.348l2.661,19.819
										l-8.777,2.902C1093.824,626.27,1093.781,626.276,1093.738,626.276z"/>
								</g>
							</g>
						</g>
						<g>
							<polygon style="fill:#FE9F73;" points="1043.724,648.044 1046.555,620.552 1053.38,621.308 1053.38,648.836 							"/>
						</g>
					</g>
					<g>
						<path style="fill:#E23E3D;" d="M1052.859,554.425c0,0-4.781,11.409,3.06,30.44c7.841,19.03-20.116-7.098-20.116-7.098
							S1037.743,549.914,1052.859,554.425z"/>
					</g>
					<g>
						<g>
							<path style="fill:#F07162;" d="M1084.294,634.613c6.561,8.481,15.524,4.459,15.615,4.416
								c0.283-0.131,0.406-0.466,0.275-0.749c-0.132-0.282-0.466-0.406-0.749-0.276c-0.34,0.156-8.249,3.672-14.244-4.078
								c-0.109-0.14-0.217-0.285-0.324-0.433c-0.167-0.236-0.536-0.308-0.789-0.125c-0.252,0.183-0.308,0.536-0.125,0.789
								C1084.066,634.313,1084.18,634.466,1084.294,634.613z"/>
						</g>
					</g>
				</g>
				<g>
					<path style="fill:#E23E3D;" d="M1055.919,584.865c0,0,62.06-3.677,65.886-18.216c3.826-14.539-10.769-14.922-10.769-14.922
						s2.734-20.661-16.013-14.539c-18.748,6.122-53.479,5.321-63.244,22.695C1022.013,577.258,1055.919,584.865,1055.919,584.865z"
						/>
				</g>
			</g>
		</g>
	</g>
	<g>
		<g>
			<g>
				<g>
					<path style="fill:#F99247;" d="M409.801,1089.484c0.118-0.06-14.465-29.187-14.465-29.187
						c-35.114,17.613-67.027,40.641-95.088,68.701c-33.747,33.747-60.243,73.049-78.755,116.814
						c-19.169,45.319-28.888,93.451-28.888,143.058c0,49.607,9.719,97.739,28.888,143.058
						c18.511,43.766,45.008,83.067,78.755,116.814c33.747,33.747,73.049,60.244,116.814,78.755
						c45.319,19.168,93.451,28.888,143.058,28.888c49.607,0,97.739-9.719,143.058-28.888c9.07-3.836,17.937-8.036,26.614-12.552
						L409.801,1089.484z M225.074,1388.87c0-125.017,68.832-234.252,170.583-291.822l304.565,596.139
						c-42.65,19.715-90.111,30.73-140.1,30.73C375.375,1723.917,225.074,1573.615,225.074,1388.87z"/>
				</g>
				<g>
					<path d="M560.121,1757.72c-0.738,0-1.336-0.598-1.336-1.336c0-0.738,0.598-1.337,1.336-1.337
						c49.427,0,97.384-9.684,142.537-28.782c8.817-3.73,17.739-7.937,26.518-12.506c0.656-0.341,1.462-0.086,1.802,0.569
						c0.341,0.655,0.086,1.462-0.569,1.802c-8.842,4.602-17.829,8.84-26.71,12.597
						C658.215,1747.966,609.908,1757.72,560.121,1757.72z"/>
				</g>
				<g>
					<path d="M494.667,1751.93c-0.079,0-0.158-0.007-0.238-0.021c-26.619-4.782-52.824-12.581-77.887-23.182
						c-43.925-18.578-83.369-45.171-117.238-79.041c-33.869-33.868-60.462-73.313-79.041-117.238
						c-19.238-45.485-28.993-93.792-28.993-143.579c0-49.787,9.755-98.094,28.993-143.579
						c18.579-43.925,45.171-83.37,79.041-117.238c28.068-28.068,60.177-51.266,95.433-68.951l1.192-0.598l0.601,1.19
						c0,0,5.708,11.312,11.401,22.632c2.847,5.661,5.69,11.323,7.814,15.574c1.063,2.128,1.946,3.902,2.56,5.146
						c1.221,2.476,1.549,3.142,0.345,3.749c-0.658,0.331-1.463,0.067-1.795-0.593c-0.028-0.056-0.052-0.114-0.072-0.171
						c-0.769-1.734-15.593-31.167-22.038-43.941c-34.533,17.479-66.002,40.303-93.551,67.852
						c-33.624,33.625-60.025,72.784-78.469,116.39c-19.098,45.154-28.782,93.11-28.782,142.537
						c0,49.427,9.684,97.384,28.782,142.537c18.444,43.607,44.845,82.766,78.469,116.389c33.625,33.624,72.784,60.025,116.39,78.469
						c24.881,10.524,50.895,18.266,77.318,23.012c0.727,0.13,1.21,0.825,1.079,1.552
						C495.865,1751.476,495.302,1751.93,494.667,1751.93z"/>
				</g>
				<rect x="460.949" y="1728.568" style="fill:#F99247;" width="43.922" height="98.803"/>
				<path style="fill:#F99247;" d="M631.59,1802.972H364.985c-19.898,0-36.029,16.13-36.029,36.028l0,0h338.661l0,0
					C667.618,1819.102,651.488,1802.972,631.59,1802.972z"/>
				<g>
					<path d="M462.286,1804.308h-94.72c-0.738,0-1.336-0.598-1.336-1.336c0-0.738,0.598-1.336,1.336-1.336h92.047v-58.773
						c0-0.738,0.598-1.337,1.336-1.337c0.738,0,1.336,0.598,1.336,1.337V1804.308z"/>
				</g>
				<g>
					<circle style="fill:#4CB7D8;" cx="560.121" cy="1388.87" r="316.899"/>
				</g>
				<g>
					<g>
						<path style="fill:#3AAAA4;" d="M588.376,1073.166c12.266,7.898,30.395,10.137,44.213,14.555
							c10.247,3.276,75.445,20.414,43.689,30.466c9.545-3.021,31.039,45.042,39.803,50.857c15.96,10.591,21.077,5.111,28.572,26.982
							c2.201,6.423-2.111,29.304-4.33,25.083c5.047,9.6,24.234,7.939,24.364,21.452c-9.269,14.774-13.504,1.675-7.478,21.349
							c5.992,19.561,32.793,23.618,29.579-1.448c-1.228-9.578-14.934-38.813,6.394-38.971c12.101-0.09,23.193,1.571,12.137-14.168
							c-10.088-14.362-7.689-14.409-5.901-28.278c-16.159-18.642-34.502-35.382-54.554-49.755
							C699.071,1098.464,644.483,1078.236,588.376,1073.166C589.658,1073.991,612.233,1075.322,588.376,1073.166z"/>
					</g>
					<path style="fill:#3AAAA4;" d="M877.055,1383.262c-0.027-1.495-0.064-2.989-0.112-4.483c-0.002-0.055-0.004-0.11-0.006-0.165
						c-0.046-1.41-0.102-2.819-0.167-4.227c-0.007-0.148-0.015-0.297-0.022-0.445c-0.065-1.371-0.138-2.741-0.222-4.111
						c-0.004-0.071-0.009-0.141-0.013-0.212c-2.587-41.996-13.64-83.369-32.276-121.104c-0.02-0.041-0.041-0.082-0.061-0.124
						c-0.657-1.328-1.323-2.653-1.998-3.972c-15.46,14.896-36.852,12.856-48.692,28.375c-21.104,27.662-9.363,50.24-23.643,81.539
						c-10.16,22.267,8.058,63.617,21.146,81.082c22.567,30.115,50.666-16.814,52.751-14.598c13.053,13.87,16.141-1.148,14.56,29.351
						c-0.185,3.563-3.215,45.673-6.03,58.355c-0.159,0.717,0.14,1.313,0.617,1.669c2.9-7.018,5.575-14.186,8.004-21.506
						c2.543-7.663,4.776-15.355,6.708-23.062C873.451,1431.633,877.181,1390.344,877.055,1383.262z"/>
				</g>
			</g>
		</g>
		<g>
			<path style="fill:#3AAAA4;" d="M693.807,1541.185c0.211-19.586-72.076-22.497-85.055-44.449
				c-15.389-26.029-57.819-29.213-79.773-39.083c-15.123-6.799-32.498-20.279-47.295-8.725c-12.355,9.647-35.714,10.424-43.21-8.114
				c2.828-9.443,3.064-19.01,0.707-28.7c-7.495-1.92-15.101-3.164-22.818-3.73c1.568-6.949,4.227-13.454,7.975-19.512
				c-7.079-13.126-26.339,17.343-35.202-5.829c-4.694-12.274-2.352-47.293,12.889-52.98c7.39-2.758,35.124-1.652,42.026,2.271
				c16.882,9.597,7.499,23.961,19.742,32.681c-16.201-11.539,43.509-72.29,50.901-75.891c18.971-9.243,60.043-11.691,72.097-30.583
				c13.317-20.872-18.81-45.953-28.22-61.108c-2.727,3.103-5.759,5.874-9.098,8.312c-7.189,0.296-7.938-19.235-16.001-20.81
				c-16.88-3.299-10.123,22.381-12.294,25.174c-12.777,16.436-70.665-20.457-24.256-34.331c4.032-1.206,90.092,16.508,74.302-5.529
				c-3.401-4.745-28.911-21.803-22.621-29.318c12.277-14.667,23.426-4.297,30.414,8.611c4.471,8.26,43.432,82.959,40.284,29.356
				c-0.685-11.666,18.172-15.497,19.69-26.763c1.131-8.392-21.596-28.853-25.494-33.718c-8.195-10.229-68.251-3.377-77.977-3.277
				c-23.414,0.241-35.056,4.889-56.78,8.627c-23.335,4.015-5.85-11.347-12.748-19.952c-2.53-3.157-27.8,2.836-28.967,3.248
				c-24.68,8.696-22.244,8.089-18.949,23.609c1.685,7.939-27.729,35.369-30.9,42.647c-14.015,32.172-42.225,50.899-45.068,87.821
				c-1.994,25.894-11.089,43.263,5.823,65.568c18.866,24.881-8.241,52.237,27.921,71.216c27.828,14.604,107.92,64.222,78.823,96.134
				c-21.65,23.745-1.236,45.34,10.175,68.608c19.181,39.113,45.923,23.761,30.344,76.915
				c-27.125,92.549,71.458,21.053,71.642,22.478c-0.754-5.862,62.976-44.648,78.718-50.722
				C660.705,1605.488,693.805,1541.33,693.807,1541.185C693.905,1532.05,693.705,1550.737,693.807,1541.185z"/>
		</g>
		<g>
			<g>
				<path d="M560.239,1707.187c-33.873,0-67.725-5.437-100.36-16.267c-60.528-20.088-113.006-57.306-151.76-107.632
					c-0.455-0.59-0.345-1.438,0.246-1.893c0.59-0.455,1.438-0.344,1.892,0.246c38.424,49.898,90.456,86.8,150.472,106.717
					c57.099,18.95,117.973,21.25,176.042,6.652c0.72-0.184,1.456,0.257,1.638,0.98c0.182,0.723-0.257,1.456-0.98,1.638
					C612.053,1704.007,586.138,1707.187,560.239,1707.187z"/>
			</g>
			<g>
				<path d="M860.89,1490.036c-0.141,0-0.284-0.022-0.426-0.069c-0.707-0.235-1.09-0.998-0.856-1.706
					c54.804-165.138-34.959-344.075-200.097-398.879c-165.137-54.804-344.074,34.959-398.879,200.097
					c-0.235,0.707-0.999,1.089-1.706,0.856c-0.707-0.235-1.09-0.999-0.856-1.706c13.533-40.776,34.647-77.682,62.756-109.694
					c27.15-30.919,59.649-55.994,96.594-74.527c36.945-18.533,76.475-29.592,117.492-32.868
					c42.468-3.392,84.674,1.749,125.449,15.281c40.776,13.533,77.682,34.647,109.694,62.756
					c30.919,27.15,55.994,59.649,74.527,96.594c18.534,36.945,29.592,76.475,32.868,117.492
					c3.392,42.466-1.749,84.673-15.281,125.45C861.983,1489.678,861.456,1490.036,860.89,1490.036z"/>
			</g>
		</g>
	</g>
	<g>
		<g>
			<polygon style="fill:#F97923;" points="2191.327,1700.487 2191.327,1654.07 2237.703,1654.07 2237.703,1607.693 
				2204.225,1607.693 2204.225,1561.276 2254.331,1561.276 2254.331,1514.859 2204.225,1514.859 2204.225,1468.442 
				2230.911,1468.442 2230.911,1422.025 2204.225,1422.025 2204.225,1375.608 2604.3,1375.608 2604.3,1422.025 2630.985,1422.025 
				2630.985,1468.442 2604.3,1468.442 2604.3,1514.859 2654.406,1514.859 2654.406,1561.276 2604.3,1561.276 2604.3,1607.693 
				2637.778,1607.693 2637.778,1654.11 2591.401,1654.11 2591.401,1700.447 2637.778,1700.447 2637.778,1746.864 2604.3,1746.864 
				2604.3,1793.281 2644.571,1793.281 2644.571,1839.698 2244.496,1839.698 2244.496,1793.281 2204.225,1793.281 2204.225,1746.864 
				2237.703,1746.864 2237.703,1700.487 			"/>
			<g style="opacity:0.3;">
				<g>
					<g>
						<g>
							
								<rect x="2244.497" y="1793.281" transform="matrix(-1 -1.224647e-16 1.224647e-16 -1 4889.0674 3632.9788)" style="fill:#F97923;" width="400.074" height="46.417"/>
						</g>
					</g>
				</g>
			</g>
			<g style="opacity:0.3;">
				<g>
					<g>
						<g>
							
								<rect x="2237.703" y="1700.447" transform="matrix(-1 -1.224647e-16 1.224647e-16 -1 4875.4814 3447.3103)" style="fill:#F97923;" width="400.074" height="46.417"/>
						</g>
					</g>
				</g>
			</g>
			<g style="opacity:0.3;">
				<g>
					<g>
						<g>
							
								<rect x="2237.703" y="1607.693" transform="matrix(-1 -1.224647e-16 1.224647e-16 -1 4875.4814 3261.8037)" style="fill:#F97923;" width="400.074" height="46.417"/>
						</g>
					</g>
				</g>
			</g>
			<g style="opacity:0.3;">
				<g>
					<g>
						<g>
							
								<rect x="2254.331" y="1514.859" transform="matrix(-1 -1.224647e-16 1.224647e-16 -1 4908.7368 3076.1355)" style="fill:#F97923;" width="400.074" height="46.417"/>
						</g>
					</g>
				</g>
			</g>
			<g style="opacity:0.3;">
				<g>
					<g>
						<g>
							
								<rect x="2230.911" y="1422.025" transform="matrix(-1 -1.224647e-16 1.224647e-16 -1 4861.896 2890.467)" style="fill:#F97923;" width="400.074" height="46.417"/>
						</g>
					</g>
				</g>
			</g>
			<g>
				<polygon style="fill:#F97923;" points="2605.932,1329.191 2639.411,1329.191 2639.411,1375.608 2593.034,1375.608 
					2239.336,1375.567 2239.336,1329.191 2205.858,1329.191 2205.858,1282.774 2255.964,1282.774 2255.964,1236.356 
					2205.858,1236.356 2205.858,1189.939 2232.543,1189.939 2232.543,1143.522 2205.858,1143.522 2205.858,1097.105 
					2605.932,1097.105 2605.932,1143.522 2632.618,1143.522 2632.618,1189.939 2605.932,1189.939 2605.932,1236.356 
					2656.038,1236.356 2656.038,1282.774 2605.932,1282.774 				"/>
				<g style="opacity:0.3;">
					<g>
						<g>
							<g>
								
									<rect x="2239.336" y="1329.191" transform="matrix(-1 -1.224647e-16 1.224647e-16 -1 4878.7466 2704.7986)" style="fill:#F97923;" width="400.075" height="46.417"/>
							</g>
						</g>
					</g>
				</g>
				<g style="opacity:0.3;">
					<g>
						<g>
							<g>
								
									<rect x="2255.964" y="1236.356" transform="matrix(-1 -1.224647e-16 1.224647e-16 -1 4912.002 2519.1301)" style="fill:#F97923;" width="400.074" height="46.417"/>
							</g>
						</g>
					</g>
				</g>
				<g style="opacity:0.3;">
					<g>
						<g>
							<g>
								
									<rect x="2232.543" y="1143.522" transform="matrix(-1 -1.224647e-16 1.224647e-16 -1 4865.1611 2333.4617)" style="fill:#F97923;" width="400.074" height="46.417"/>
							</g>
						</g>
					</g>
				</g>
			</g>
		</g>
		<g>
			<path style="fill:#FFFFFF;" d="M2294.189,1122.801c2.012,17.647,18.295,22.38,18.295,22.38s-16.282,4.732-18.295,22.38
				c-2.012-17.648-18.295-22.38-18.295-22.38S2292.177,1140.448,2294.189,1122.801z"/>
		</g>
		<g>
			<path style="fill:#FFFFFF;" d="M2474.296,1274.187c1.071,9.391,9.735,11.909,9.735,11.909s-8.664,2.518-9.735,11.909
				c-1.071-9.391-9.735-11.909-9.735-11.909S2473.225,1283.578,2474.296,1274.187z"/>
		</g>
		<g>
			<path style="fill:#FFFFFF;" d="M2430.948,1104.76c1.071,9.391,9.735,11.909,9.735,11.909s-8.664,2.518-9.735,11.909
				c-1.071-9.391-9.735-11.909-9.735-11.909S2429.877,1114.151,2430.948,1104.76z"/>
		</g>
	</g>
	<g>
		<g>
			<g>
				<g>
					<g>
						<g>
							<g>
								<rect x="1853.33" y="1791.417" style="fill:#FFC931;" width="418.353" height="47.988"/>
							</g>
						</g>
					</g>
				</g>
				<g>
					<g>
						<g>
							<g>
								<rect x="1895.441" y="1743.428" style="fill:#FFC931;" width="418.353" height="47.988"/>
							</g>
						</g>
					</g>
				</g>
				<g>
					<g>
						<g>
							<g>
								<rect x="1860.433" y="1695.44" style="fill:#FFC931;" width="418.353" height="47.988"/>
							</g>
						</g>
					</g>
				</g>
				<g>
					<g>
						<g>
							<g>
								<rect x="1908.928" y="1647.493" style="fill:#FFC931;" width="418.353" height="47.988"/>
							</g>
						</g>
					</g>
				</g>
				<g>
					<g>
						<g>
							<g>
								<rect x="1860.433" y="1599.547" style="fill:#FFC931;" width="418.353" height="47.988"/>
							</g>
						</g>
					</g>
				</g>
				<g>
					<g>
						<g>
							<g>
								<rect x="1895.441" y="1551.559" style="fill:#FFC931;" width="418.353" height="47.988"/>
							</g>
						</g>
					</g>
				</g>
				<g>
					<g>
						<g>
							<g>
								<rect x="1843.046" y="1503.57" style="fill:#FFC931;" width="418.353" height="47.988"/>
							</g>
						</g>
					</g>
				</g>
				<g style="opacity:0.5;">
					<path style="fill:#F99247;" d="M2069.464,1503.571h191.787v47.988h52.395v47.988h-35.008v47.947h48.495v47.988h-48.495v47.946
						h35.008v47.988h-42.111v18.56v29.428h-191.779c-7.706,0-13.952-6.176-13.952-13.794v-15.634v-4.765
						c0-7.618,6.247-13.795,13.952-13.795h14.206c7.706,0,13.953-6.176,13.953-13.795v-20.399c0-7.618-6.247-13.795-13.953-13.795
						h-7.103c-7.706,0-13.953-6.176-13.953-13.794v-20.358c0-7.618,6.247-13.794,13.953-13.794h20.59
						c7.706,0,13.953-6.176,13.953-13.795v-20.399c0-7.618-6.247-13.794-13.953-13.794h-20.59c-7.706,0-13.953-6.176-13.953-13.795
						v-20.357c0-7.619,6.247-13.795,13.953-13.795h7.103c7.706,0,13.953-6.176,13.953-13.794v-20.399
						c0-7.619-6.247-13.795-13.953-13.795h-24.49c-7.706,0-13.952-6.176-13.952-13.794v-20.399
						C2055.52,1509.749,2061.762,1503.575,2069.464,1503.571z"/>
				</g>
				<g>
					<g>
						<g>
							<g>
								<rect x="1843.045" y="1501.878" width="418.206" height="3.386"/>
							</g>
						</g>
					</g>
				</g>
				<g>
					<g>
						<g>
							<g>
								<rect x="1895.441" y="1549.866" width="418.206" height="3.386"/>
							</g>
						</g>
					</g>
				</g>
				<g>
					<g>
						<g>
							<g>
								<rect x="1860.433" y="1597.854" width="418.205" height="3.386"/>
							</g>
						</g>
					</g>
				</g>
				<g>
					<g>
						<g>
							<g>
								<rect x="1908.928" y="1645.8" width="418.206" height="3.386"/>
							</g>
						</g>
					</g>
				</g>
				<g>
					<g>
						<g>
							<g>
								<rect x="1908.928" y="1693.789" width="418.206" height="3.386"/>
							</g>
						</g>
					</g>
				</g>
				<g>
					<g>
						<g>
							<g>
								<rect x="1860.433" y="1741.735" width="418.205" height="3.386"/>
							</g>
						</g>
					</g>
				</g>
				<g>
					<g>
						<g>
							<g>
								<rect x="1853.329" y="1789.724" width="418.206" height="3.386"/>
							</g>
						</g>
					</g>
				</g>
			</g>
			<g>
				<path style="fill:#FFFFFF;" d="M2160.867,1766.222c-2.407,21.106-21.88,26.766-21.88,26.766s19.474,5.66,21.88,26.766
					c2.407-21.106,21.88-26.766,21.88-26.766S2163.274,1787.328,2160.867,1766.222z"/>
			</g>
			<g>
				<path style="fill:#FFFFFF;" d="M2235.087,1622.42c-2.407,21.106-21.88,26.766-21.88,26.766s19.474,5.66,21.88,26.766
					c2.407-21.106,21.881-26.766,21.881-26.766S2237.494,1643.527,2235.087,1622.42z"/>
			</g>
			<g>
				<path style="fill:#FFFFFF;" d="M2292.031,1751.039c-1.473,12.919-13.393,16.383-13.393,16.383s11.92,3.464,13.393,16.383
					c1.473-12.919,13.393-16.383,13.393-16.383S2293.504,1763.958,2292.031,1751.039z"/>
			</g>
		</g>
		<g>
			<g>
				<g>
					<g>
						<g>
							<g>
								<g>
									<g>
										<g>
											<g>
												<g>
													<g>
														<g>
															<polygon style="fill:#FE9F73;" points="1820.812,1802.59 1909.294,1803.826 1910.562,1718.976 1822.429,1707.781 
																															"/>
														</g>
													</g>
												</g>
											</g>
										</g>
									</g>
								</g>
							</g>
						</g>
					</g>
					<g>
						<g>
							<g>
								<path style="fill:#E23E3D;" d="M1910.125,1821.56h-76.427l-30.987-34.625l-56.676,34.625h-12.207
									c-4.206,0-8.063,2.918-8.855,7.156c-1.066,5.703,3.166,10.689,8.533,10.689h177.709c1.306,0,2.365-1.086,2.365-2.425
									v-11.876C1913.579,1823.147,1912.033,1821.56,1910.125,1821.56z"/>
							</g>
						</g>
						<g>
							<g>
								<path style="fill:#F46277;" d="M1909.45,1821.661v-32.183c0,0-12.871-17.773-32.469-8.701c0,0-29.642,21.572-55.772-4.533
									l-64.889,29.527c0,0-17.792,6.1-22.609,15.89H1909.45z"/>
							</g>
						</g>
						<g>
							<g>
								<g>
									<g>
										<rect x="1908.799" y="1789.478" width="1.301" height="32.023"/>
									</g>
								</g>
							</g>
						</g>
						<g>
							<g>
								<g>
									<g>
										<path d="M1850.414,1789.828c-2.484,0-3.98-0.217-4.029-0.225l0.193-1.319c0.151,0.021,15.469,2.224,30.034-8.057
											l0.737,1.1C1866.913,1788.693,1856.09,1789.828,1850.414,1789.828z"/>
									</g>
								</g>
							</g>
						</g>
						<g>
							<g>
								<g>
									<g>
										<polygon points="1893.656,1815.65 1892.93,1814.542 1901.218,1808.809 1901.945,1809.916 										"/>
									</g>
								</g>
							</g>
						</g>
						<g>
							<g>
								<g>
									<g>
										<polygon points="1887.713,1814.027 1886.986,1812.922 1895.274,1807.189 1896,1808.294 										"/>
									</g>
								</g>
							</g>
						</g>
						<g>
							<g>
								<g>
									<g>
										<g>
											<g>
												<g>
													<g>
														<g>
															<g>
																<path d="M1727.46,1837.856c-2.099-1.826-3.302-4.491-3.302-7.313c0-5.287,4.194-9.59,9.348-9.59h175.713
																	c2.764,0,5.011,2.307,5.011,5.142v8.896h-1.301v-8.896c0-2.1-1.664-3.807-3.71-3.807h-175.713
																	c-4.438,0-8.047,3.703-8.047,8.255c0,2.428,1.036,4.723,2.842,6.297L1727.46,1837.856z"/>
															</g>
														</g>
													</g>
												</g>
											</g>
										</g>
									</g>
								</g>
							</g>
						</g>
						<g>
							<g>
								<g>
									<g>
										<path d="M1734.095,1821.906l-1.177-0.57c0.145-0.317,3.705-7.799,16.987-13.609c13.052-5.71,70.46-31.83,71.038-32.093
											l0.529,1.22c-0.58,0.263-57.997,26.387-71.057,32.1C1737.636,1814.546,1734.128,1821.833,1734.095,1821.906z"/>
									</g>
								</g>
							</g>
						</g>
					</g>
					<g>
						<g>
							<path style="fill:#FE9F73;" d="M2270.017,1269.681l-19.741,8.756l-21.955,10.678c0,0-34.095,6.072-34.589,5.958
								c-0.072-0.016,2.833,5.205,2.833,5.205c-42.304,5.354-175.639,10.971-197.529,13.477
								c-13.197,1.511-25.878,18.34-33.873,31.474l10.837,7.523c0,0,116.442-5.267,116.207-2.759
								c-0.073,0.792-3.358,12.649-8.461,28.164c71.917,4.931,172.634,4.458,191.336-25.943
								C2290.427,1327.273,2275.469,1291.473,2270.017,1269.681z"/>
						</g>
					</g>
					<g>
						<g>
							<g>
								<g>
									<path style="fill:#49263E;" d="M2092.845,1503.238c0,0,76.168,1.285,129.553-0.59c17.136-0.602,32.386,0.636,41.415-1.421
										c37.158-8.465,46.311-127.443,4.119-200.338c-42.193-72.895-189.812,150.914-189.812,150.914L2092.845,1503.238z"/>
								</g>
							</g>
						</g>
					</g>
					<g>
						<g>
							<g>
								<g>
									<g>
										<g>
											<g>
												<g>
													<g>
														<g>
															<polygon style="fill:#FE9F73;" points="1943.978,1805.808 2032.459,1807.045 2033.728,1722.195 1945.594,1711 
																															"/>
														</g>
													</g>
												</g>
											</g>
										</g>
									</g>
								</g>
							</g>
						</g>
					</g>
					<g>
						<g>
							<g>
								<g>
									<g>
										<path style="fill:#35182E;" d="M2010.83,1344.012c0,0-187.099,12.265-192.5,34.428
											c-5.401,22.163-20.879,257.793-9.304,358.318c0,0,70.988,5.013,104.939-3.43l8.263-231.45l56.038-6.596l128.373-171.969
											L2010.83,1344.012z"/>
									</g>
								</g>
							</g>
						</g>
					</g>
					<g>
						<g>
							<g>
								<g>
									<g>
										<path style="fill:#49263E;" d="M2100.722,1340.384c0,0-144.291,41.766-149.692,63.929
											c-5.401,22.163-32.733,233.397-21.159,333.922c0,0,88.289,3.536,122.24-4.907l9.148-231.22l32.927,1.178l79.839-144.091
											L2100.722,1340.384z"/>
									</g>
								</g>
							</g>
						</g>
					</g>
					<g>
						<g>
							<g>
								<g>
									<g>
										<path style="fill:#21111D;" d="M2006.307,1740.018c33.729,0,45.756-5.211,46.327-5.467l0.746-0.337l8.856-232.579
											l-13.938,6.744l1.111,2.416l10.057-4.865l-8.624,226.458c-3.648,1.292-21.143,6.471-62.459,4.514l-0.12,2.668
											C1994.87,1739.883,2000.871,1740.018,2006.307,1740.018z"/>
									</g>
								</g>
							</g>
						</g>
					</g>
					<g>
						<g>
							<g>
								<g>
									<g>
										<path style="fill:#21111D;" d="M2037.938,1689.864c3.6-14.243,4.629-153.174,4.672-159.081l-2.604-0.019
											c-0.01,1.444-1.069,144.504-4.588,158.431L2037.938,1689.864z"/>
									</g>
								</g>
							</g>
						</g>
					</g>
					<g>
						<g>
							<g>
								<g>
									<g>
										<path style="fill:#21111D;" d="M1865.346,1739.814c28.82,0,48.72-4.845,48.924-4.896l0.961-0.238l8.355-233.05
											l-10.668,8.81l1.633,2.08l6.235-5.149l-8.09,225.17c-4.415,0.977-23.648,4.873-49.875,4.589l-0.025,2.671
											C1863.654,1739.81,1864.504,1739.814,1865.346,1739.814z"/>
									</g>
								</g>
							</g>
						</g>
					</g>
					<g>
						<g>
							<g>
								<g>
									<g>
										<path style="fill:#21111D;" d="M1901.644,1695.031c3.581-21.515,0.165-167.15,0.018-173.339l-2.603,0.064
											c0.036,1.514,3.557,151.565,0.018,172.826L1901.644,1695.031z"/>
									</g>
								</g>
							</g>
						</g>
					</g>
					<g>
						<g>
							<g>
								<g>
									<path style="fill:#21111D;" d="M2150.157,1505.729c33.235,0,73.079-1.154,117.873-4.614l-0.195-2.654
										c-133.462,10.315-222.967,0.11-223.855,0.005l-0.295,2.644C2044.277,1501.179,2084.172,1505.729,2150.157,1505.729z"/>
								</g>
							</g>
						</g>
					</g>
					<g>
						<g>
							<g>
								<g>
									<g>
										<g>
											<path style="fill:#ED2B47;" d="M2104.471,1265.754c-2.577-0.045-106.225,45.682-106.225,45.682l20.888,41.001
												l58.165-13.098L2104.471,1265.754z"/>
										</g>
									</g>
								</g>
							</g>
						</g>
					</g>
					<g>
						<g>
							<g>
								<g>
									<g>
										<g>
											<path style="fill:#21111D;" d="M2265.335,1302.035c-0.052,0.02-0.105,0.036-0.16,0.05l-32.425,7.611
												c-0.653,0.153-1.303-0.266-1.453-0.935s0.257-1.334,0.912-1.49l32.425-7.611c0.653-0.153,1.303,0.266,1.453,0.935
												C2266.223,1301.207,2265.893,1301.818,2265.335,1302.035z"/>
										</g>
									</g>
								</g>
							</g>
						</g>
					</g>
					<g>
						<g>
							<path style="fill:#F9B59D;" d="M2282.28,1282.26l-19.741,8.756l-21.955,10.678c0,0-34.095,6.072-34.589,5.958
								c-0.072-0.016,2.833,5.205,2.833,5.205c-42.304,5.354-175.639,10.971-197.529,13.478
								c-13.197,1.511-25.878,18.34-33.873,31.474l10.838,7.523c0,0,116.442-5.267,116.207-2.759
								c-0.074,0.792-3.359,12.649-8.461,28.164c71.918,4.932,172.634,4.458,191.336-25.943
								C2302.69,1339.853,2287.732,1304.052,2282.28,1282.26z"/>
						</g>
					</g>
					<g>
						<g>
							<g>
								<g>
									<path style="fill:#ED2B47;" d="M2297.306,1083.36c-24.916-4.392-91.143-6.013-91.143-6.013s-8.756,2.356-5.967,1.029
										c-72.989,13.22-81.056,68.745-81.056,68.745l-35.629,160.427l-39.647,2.202c-12.832,24.939-3.408,92.208-3.408,92.208
										l192.036,22.201c0,0,41.509,7.02,76.615-39.165c23.224-30.553,31.126-124.361,31.116-192.902
										C2340.222,1192.092,2349.143,1092.498,2297.306,1083.36z"/>
								</g>
							</g>
						</g>
					</g>
					<g>
						<g>
							<g>
								<g>
									<polygon style="fill:#FEBAC7;" points="1759.419,1207.586 1942.262,1207.586 2006.03,1374.166 1823.187,1374.166 									
										"/>
								</g>
							</g>
							<g>
								<g>
									<polygon style="fill:#F7597F;" points="2006.03,1374.166 1996.489,1374.166 1932.721,1207.586 1942.262,1207.586 									
										"/>
								</g>
							</g>
							<g>
								<g>
									<path style="fill:#E2F2F1;" d="M1878.956,1285.568c2.535,7.652,0.677,15.219-4.148,16.901
										c-4.825,1.682-10.792-3.158-13.326-10.811c-2.535-7.652-0.677-15.219,4.148-16.901
										C1870.455,1273.076,1876.421,1277.916,1878.956,1285.568z"/>
								</g>
							</g>
						</g>
						<g>
							<g>
								<path style="fill:#F7597F;" d="M2066.473,1360.714h-68.307v13.453h68.307c3.621,0,6.557-3.011,6.557-6.726l0,0
									C2073.03,1363.725,2070.094,1360.714,2066.473,1360.714z"/>
							</g>
						</g>
						<g>
							<g>
								<rect x="2006.03" y="1365.332" style="fill:#E23E3D;" width="43.149" height="2.108"/>
							</g>
						</g>
					</g>
					<g>
						<g>
							<g>
								<g>
									<g>
										<g>
											<path style="fill:#21111D;" d="M2232.752,1310.326c-0.219,0.085-0.462,0.106-0.706,0.047
												c-0.652-0.158-1.056-0.828-0.902-1.496c0.201-0.878,20.271-88.396,28.811-143.468c0.107-0.679,0.73-1.14,1.388-1.034
												c0.662,0.108,1.113,0.746,1.008,1.424c-8.555,55.165-28.644,142.77-28.846,143.648
												C2233.408,1309.866,2233.116,1310.184,2232.752,1310.326z"/>
										</g>
									</g>
								</g>
							</g>
						</g>
					</g>
					<g>
						<g>
							<g>
								<g>
									<g>
										<g>
											<path style="fill:#21111D;" d="M2108.542,1308.887c-0.246,0.095-0.523,0.109-0.792,0.023
												c-0.639-0.207-0.994-0.906-0.792-1.561c0.301-0.975,30.076-97.892,36.296-131.397c0.126-0.675,0.762-1.117,1.418-0.99
												c0.658,0.128,1.09,0.78,0.965,1.454c-6.246,33.649-36.065,130.704-36.365,131.681
												C2109.155,1308.476,2108.878,1308.757,2108.542,1308.887z"/>
										</g>
									</g>
								</g>
							</g>
						</g>
					</g>
					<g>
						<g>
							<g>
								<g>
									<g>
										<g>
											<path style="fill:#21111D;" d="M2229.596,1124.367c-0.938,0.1-1.893,0.185-2.866,0.255
												c-0.555,0.04-1.037-0.39-1.076-0.959c-0.039-0.569,0.362-1.058,0.935-1.104c41.766-3.007,49.521-34.373,49.58-34.688
												c0.103-0.551,0.616-0.935,1.159-0.838c0.54,0.093,0.912,0.598,0.834,1.154
												C2278.117,1088.51,2270.409,1120.036,2229.596,1124.367z"/>
										</g>
									</g>
								</g>
							</g>
						</g>
					</g>
					<g>
						<g>
							<g>
								<g>
									<g>
										<g>
											<path style="fill:#21111D;" d="M2100.019,1285.759c-0.543,0.211-1.172-0.005-1.475-0.537l-8.141-14.31l0.106-0.479
												l27.438-123.543c0.169-1.114,2.548-15.511,14.445-31.386c11.154-14.883,33.15-33.809,74.591-39.464
												c0.664-0.09,1.274,0.388,1.362,1.069c0.089,0.68-0.379,1.306-1.042,1.397c-40.547,5.532-62.026,23.937-72.905,38.404
												c-11.789,15.676-14.038,30.251-14.058,30.396l-0.018,0.092l-27.341,123.109l7.659,13.461
												c0.337,0.593,0.142,1.355-0.437,1.702C2100.143,1285.705,2100.082,1285.735,2100.019,1285.759z"/>
										</g>
									</g>
								</g>
							</g>
						</g>
					</g>
					<g>
						<g>
							<g>
								<g>
									<g>
										<g>
											<path style="fill:#21111D;" d="M2057.081,1286.211c-0.616,0.239-1.309-0.072-1.554-0.703
												c-0.248-0.638,0.055-1.362,0.677-1.617l35.039-14.337c0.645-0.229,1.328,0.056,1.576,0.694
												c0.248,0.638-0.055,1.362-0.677,1.617l-35.039,14.337C2057.095,1286.205,2057.088,1286.208,2057.081,1286.211z"/>
										</g>
									</g>
								</g>
							</g>
						</g>
					</g>
					<g>
						<g>
							<g>
								<g>
									<path style="fill:#ED2B47;" d="M2043.864,1309.75c0,0-12.673,30.68-3.408,92.208l46.339-25.505l-13.764-45.965
										L2043.864,1309.75z"/>
								</g>
							</g>
						</g>
					</g>
					<g>
						<g>
							<g>
								<g>
									<g>
										<g>
											<path style="fill:#21111D;" d="M2274.635,1311.432c-0.144,0.056-0.302,0.085-0.465,0.08
												c-1.734-0.055-173.316-5.337-229.453-0.586c-1.38,3.78-7.714,23.312-5.941,59.047c0.034,0.687-0.476,1.272-1.149,1.306
												c-0.669,0.034-1.239-0.494-1.273-1.179c-2.009-40.494,6.055-60.033,6.399-60.846l0.289-0.68l0.72-0.064
												c55.484-4.875,228.739,0.459,230.483,0.513c0.669,0.021,1.196,0.595,1.175,1.282
												C2275.403,1310.824,2275.08,1311.259,2274.635,1311.432z"/>
										</g>
									</g>
								</g>
							</g>
						</g>
					</g>
					<g>
						<g>
							<g>
								<g>
									<g>
										<g>
											<g>
												<g>
													<g>
														<path style="fill:#FE9F73;" d="M2196.19,984.038l-1.369,54.138c0,0-1.147,17.385,13.643,19.955l-3.359,23.146
															c-1.249,8.604,3.573,17.001,11.588,19.841c3.919,1.388,8.612,2.451,13.961,2.594
															c16.966,0.451,26.485-12.357,28.064-18.846s-1.874-37.783-1.874-37.783l0.904-15.308l-0.429-59.42L2196.19,984.038z"
															/>
													</g>
												</g>
											</g>
										</g>
									</g>
								</g>
							</g>
						</g>
						<g>
							<g>
								<g>
									<g>
										<g>
											<g>
												<g>
													<g>
														<path style="fill:#F07162;" d="M2243.253,1044.262c0,0-1.732,29.103-37.267,30.941l2.477-17.072
															C2208.464,1058.131,2231.344,1063.484,2243.253,1044.262z"/>
													</g>
												</g>
											</g>
										</g>
									</g>
								</g>
							</g>
						</g>
						<g>
							<g>
								<g>
									<g>
										<g>
											<g>
												<g>
													<g>
														<path style="fill:#49263E;" d="M2236.433,1013.523c0.176,0.005,0.354-0.058,0.495-0.19
															c0.288-0.269,0.309-0.728,0.047-1.024c-0.095-0.107-9.559-10.568-18.63-3.461c-0.31,0.243-0.37,0.698-0.133,1.016
															c0.237,0.32,0.681,0.38,0.991,0.136c8.037-6.296,16.375,2.891,16.726,3.285
															C2236.064,1013.438,2236.247,1013.518,2236.433,1013.523z"/>
													</g>
												</g>
											</g>
										</g>
									</g>
								</g>
							</g>
						</g>
						<g>
							<g>
								<g>
									<g>
										<g>
											<g>
												<path style="fill:#49263E;" d="M2260.988,1006.562l-15.339,2.852l-2.832,2.857c0,0,1.984-26.203,4.988-31.284
													C2250.809,975.906,2260.988,1006.562,2260.988,1006.562z"/>
											</g>
										</g>
									</g>
								</g>
							</g>
						</g>
						<g>
							<g>
								<g>
									<g>
										<g>
											<g>
												<g>
													<g>
														<path style="fill:#49263E;" d="M2207.403,1008.396c0.198,0.005,0.397-0.074,0.541-0.237
															c0.263-0.296,0.243-0.754-0.045-1.024c-0.278-0.261-6.872-6.357-11.23-2.719c-0.303,0.253-0.349,0.709-0.102,1.02
															c0.246,0.312,0.691,0.359,0.995,0.105c3.414-2.849,9.325,2.611,9.384,2.666
															C2207.075,1008.33,2207.238,1008.392,2207.403,1008.396z"/>
													</g>
												</g>
											</g>
										</g>
									</g>
								</g>
							</g>
						</g>
						<g>
							<g>
								<g>
									<g>
										<g>
											<g>
												<g>
													<g>
														<path d="M2222.064,1016.073c-0.031,1.201,0.894,2.201,2.066,2.232c1.171,0.031,2.145-0.917,2.176-2.119
															c0.031-1.201-0.895-2.201-2.066-2.232C2223.068,1013.923,2222.094,1014.872,2222.064,1016.073z"/>
													</g>
												</g>
											</g>
										</g>
									</g>
								</g>
							</g>
						</g>
						<g>
							<g>
								<g>
									<g>
										<g>
											<g>
												<g>
													<g>
														<path d="M2199.576,1013.298c-0.031,1.201,0.894,2.201,2.066,2.232c1.171,0.031,2.145-0.918,2.176-2.119
															c0.031-1.201-0.895-2.201-2.066-2.232C2200.581,1011.148,2199.607,1012.096,2199.576,1013.298z"/>
													</g>
												</g>
											</g>
										</g>
									</g>
								</g>
							</g>
						</g>
						<g>
							<g>
								<g>
									<g>
										<g>
											<g>
												<g>
													<g>
														<path style="fill:#FE9F73;" d="M2239.598,1015.784c-0.182,7.209,5.367,13.204,12.394,13.391
															c7.027,0.187,12.872-5.505,13.054-12.714c0.183-7.209-5.367-13.204-12.394-13.392
															C2245.625,1002.883,2239.781,1008.575,2239.598,1015.784z"/>
													</g>
												</g>
											</g>
										</g>
									</g>
								</g>
							</g>
						</g>
						<g>
							<g>
								<g>
									<g>
										<g>
											<g>
												<g>
													<g>
														<path style="fill:#F07162;" d="M2254.366,1023.427c2.643,0.07,4.46-1.921,5.093-3.942
															c0.749-2.391,0.02-4.752-1.856-6.018c-2.773-1.87-5.356-0.786-6.688,0.062c0.587-1.467,1.475-2.522,2.65-3.145
															c2.542-1.349,5.626-0.235,5.657-0.224c0.183,0.069,0.386-0.029,0.453-0.218c0.066-0.188-0.029-0.396-0.212-0.464
															c-0.137-0.051-3.397-1.233-6.218,0.259c-1.628,0.861-2.761,2.432-3.366,4.669l-0.34,1.254l0.924-0.894
															c0.13-0.127,3.233-3.065,6.751-0.693c1.948,1.313,2.064,3.617,1.572,5.189c-0.511,1.633-1.969,3.504-4.399,3.439
															c-0.024-0.001-0.047-0.004-0.073-0.003c-0.193-0.005-0.354,0.149-0.362,0.348c-0.008,0.2,0.144,0.369,0.339,0.377
															C2254.316,1023.425,2254.341,1023.426,2254.366,1023.427z"/>
													</g>
												</g>
											</g>
										</g>
									</g>
								</g>
							</g>
						</g>
						<g>
							<g>
								<g>
									<g>
										<g>
											<g>
												<g>
													<g>
														<path style="fill:#F07162;" d="M2214.212,1030.548c0.148,0.004,0.289-0.089,0.342-0.24
															c0.066-0.189-0.029-0.396-0.213-0.464l-7.024-2.592l2.671-17.046c0.031-0.198-0.1-0.384-0.293-0.415
															c-0.195-0.037-0.375,0.103-0.405,0.3l-2.764,17.64l7.577,2.795
															C2214.138,1030.541,2214.175,1030.547,2214.212,1030.548z"/>
													</g>
												</g>
											</g>
										</g>
									</g>
								</g>
							</g>
						</g>
						<g>
							<g>
								<g>
									<g>
										<g>
											<g>
												<g>
													<g>
														<path style="fill:#FBFDFC;" d="M2219.521,1037.757c-0.217-0.049-13.987-0.747-13.987-0.747s1.582,5.892,6.699,6.165
															C2217.351,1043.448,2219.521,1037.757,2219.521,1037.757z"/>
													</g>
												</g>
											</g>
										</g>
									</g>
								</g>
							</g>
						</g>
						<g>
							<g>
								<g>
									<g>
										<g>
											<g>
												<path style="fill:#49263E;" d="M2260.988,1006.562c0,0,4.939-25.302-2.408-34.977
													c-7.347-9.676-50.465-27.413-55.862-22.817c-5.397,4.596-0.265,10.489-0.265,10.489s-17.335-6.217-21.696,9.58
													c-4.36,15.797,33.069,23.564,55.686,16.718C2236.444,985.555,2251.165,990.388,2260.988,1006.562z"/>
											</g>
										</g>
									</g>
								</g>
							</g>
						</g>
					</g>
					<g>
						<g>
							<g>
								<g>
									<g>
										<g>
											<path style="fill:#21111D;" d="M2265.945,1420.461c-2.847,1.104-5.529,1.965-8,2.638
												c-14.846,4.04-25.217,2.362-25.652,2.288c-0.66-0.111-1.107-0.751-0.998-1.428c0.107-0.677,0.732-1.136,1.392-1.026
												c0.103,0.017,10.389,1.665,24.761-2.273c13.256-3.627,32.814-12.899,50.702-36.43
												c22.455-29.541,30.657-120.491,30.858-189.398c0.001-0.687,0.547-1.244,1.216-1.24c0.67,0.002,1.211,0.561,1.209,1.247
												c-0.201,69.301-8.538,160.885-31.37,190.922C2295.041,1405.521,2278.823,1415.467,2265.945,1420.461z"/>
										</g>
									</g>
								</g>
							</g>
						</g>
					</g>
					<path style="fill:#21111D;" d="M1942.292,1499.438c-6.483,0.377-25.006,1.823-39.246,6.55l0.802,2.541
						c13.754-4.564,31.662-6.01,38.282-6.405L1942.292,1499.438z"/>
					<g>
						<g>
							<g>
								<path style="fill:#FF424D;" d="M2034.909,1821.56h-76.427l-30.987-34.625l-56.676,34.625h-12.207
									c-4.206,0-8.063,2.918-8.855,7.156c-1.066,5.703,3.166,10.689,8.533,10.689h177.708c1.306,0,2.365-1.086,2.365-2.425
									v-11.876C2038.363,1823.147,2036.817,1821.56,2034.909,1821.56z"/>
							</g>
						</g>
						<g>
							<g>
								<path style="fill:#FD7583;" d="M2034.234,1821.661v-32.183c0,0-12.871-17.773-32.469-8.701c0,0-29.642,21.572-55.772-4.533
									l-64.889,29.527c0,0-17.792,6.1-22.609,15.89H2034.234z"/>
							</g>
						</g>
						<g>
							<g>
								<g>
									<g>
										<rect x="2033.583" y="1789.478" width="1.301" height="32.023"/>
									</g>
								</g>
							</g>
						</g>
						<g>
							<g>
								<g>
									<g>
										<path d="M1975.198,1789.828c-2.484,0-3.981-0.217-4.029-0.225l0.193-1.319c0.151,0.021,15.469,2.224,30.034-8.057
											l0.737,1.1C1991.697,1788.693,1980.874,1789.828,1975.198,1789.828z"/>
									</g>
								</g>
							</g>
						</g>
						<g>
							<g>
								<g>
									<g>
										<polygon points="2018.44,1815.65 2017.714,1814.542 2026.002,1808.809 2026.729,1809.916 										"/>
									</g>
								</g>
							</g>
						</g>
						<g>
							<g>
								<g>
									<g>
										<polygon points="2012.497,1814.027 2011.77,1812.922 2020.057,1807.189 2020.785,1808.294 										"/>
									</g>
								</g>
							</g>
						</g>
						<g>
							<g>
								<g>
									<g>
										<g>
											<g>
												<g>
													<g>
														<g>
															<g>
																<path d="M1852.244,1837.856c-2.099-1.826-3.302-4.491-3.302-7.313c0-5.287,4.194-9.59,9.348-9.59h175.713
																	c2.764,0,5.011,2.307,5.011,5.142v8.896h-1.301v-8.896c0-2.1-1.664-3.807-3.71-3.807H1858.29
																	c-4.438,0-8.047,3.703-8.047,8.255c0,2.428,1.036,4.723,2.842,6.297L1852.244,1837.856z"/>
															</g>
														</g>
													</g>
												</g>
											</g>
										</g>
									</g>
								</g>
							</g>
						</g>
						<g>
							<g>
								<g>
									<g>
										<path d="M1858.879,1821.906l-1.177-0.57c0.145-0.317,3.705-7.799,16.987-13.609c13.052-5.71,70.46-31.83,71.038-32.093
											l0.529,1.22c-0.579,0.263-57.997,26.387-71.056,32.1C1862.42,1814.546,1858.912,1821.833,1858.879,1821.906z"/>
									</g>
								</g>
							</g>
						</g>
					</g>
				</g>
			</g>
		</g>
	</g>
	<g>
		<g>
			<g>
				<g>
					<g>
						<g>
							
								<rect x="2439.717" y="1792.133" transform="matrix(-1 -1.224647e-16 1.224647e-16 -1 5279.5088 3630.6826)" style="fill:#FFC931;" width="400.074" height="46.417"/>
						</g>
					</g>
				</g>
			</g>
			<g>
				<g>
					<g>
						<g>
							
								<rect x="2399.446" y="1745.716" transform="matrix(-1 -1.224647e-16 1.224647e-16 -1 5198.9658 3537.8484)" style="fill:#FFC931;" width="400.074" height="46.417"/>
						</g>
					</g>
				</g>
			</g>
			<g>
				<g>
					<g>
						<g>
							
								<rect x="2432.924" y="1699.299" transform="matrix(-1 -1.224647e-16 1.224647e-16 -1 5265.9229 3445.0142)" style="fill:#FFC931;" width="400.074" height="46.417"/>
						</g>
					</g>
				</g>
			</g>
			<g>
				<g>
					<g>
						<g>
							
								<rect x="2386.548" y="1652.922" transform="matrix(-1 -1.224647e-16 1.224647e-16 -1 5173.1694 3352.2607)" style="fill:#FFC931;" width="400.075" height="46.417"/>
						</g>
					</g>
				</g>
			</g>
			<g>
				<g>
					<g>
						<g>
							
								<rect x="2432.924" y="1606.545" transform="matrix(-1 -1.224647e-16 1.224647e-16 -1 5265.9229 3259.5076)" style="fill:#FFC931;" width="400.074" height="46.417"/>
						</g>
					</g>
				</g>
			</g>
			<g>
				<g>
					<g>
						<g>
							
								<rect x="2399.446" y="1560.128" transform="matrix(-1 -1.224647e-16 1.224647e-16 -1 5198.9658 3166.6733)" style="fill:#FFC931;" width="400.074" height="46.417"/>
						</g>
					</g>
				</g>
			</g>
			<g>
				<g>
					<g>
						<g>
							
								<rect x="2449.552" y="1513.711" transform="matrix(-1 -1.224647e-16 1.224647e-16 -1 5299.1782 3073.8391)" style="fill:#FFC931;" width="400.074" height="46.417"/>
						</g>
					</g>
				</g>
			</g>
			<g>
				<g>
					<g>
						<g>
							
								<rect x="2399.446" y="1467.294" transform="matrix(-1 -1.224647e-16 1.224647e-16 -1 5198.9658 2981.0049)" style="fill:#FFC931;" width="400.074" height="46.417"/>
						</g>
					</g>
				</g>
			</g>
			<g>
				<g>
					<g>
						<g>
							
								<rect x="2426.131" y="1420.877" transform="matrix(-1 -1.224647e-16 1.224647e-16 -1 5252.3374 2888.1709)" style="fill:#FFC931;" width="400.074" height="46.417"/>
						</g>
					</g>
				</g>
			</g>
			<g>
				<g>
					<g>
						<g>
							
								<rect x="2399.446" y="1374.46" transform="matrix(-1 -1.224647e-16 1.224647e-16 -1 5198.9658 2795.3367)" style="fill:#FFC931;" width="400.074" height="46.417"/>
						</g>
					</g>
				</g>
			</g>
			<g style="opacity:0.5;">
				<g>
					<g>
						<g>
							<path style="fill:#F99247;" d="M2386.688,1699.339v-46.417h46.377v-46.377h-33.478v-46.417h50.106v-46.417h-50.106v-46.417
								h26.686v-46.417h-26.686v-46.417h183.4c7.369,0,13.343,5.974,13.343,13.343v19.731c0,7.369,5.974,13.343,13.343,13.343l0,0
								c7.369,0,13.343,5.974,13.343,13.343v19.732c0,7.369-5.974,13.343-13.343,13.343l0,0c-7.369,0-13.343,5.974-13.343,13.343
								v19.731c0,7.369,5.974,13.343,13.343,13.343h23.42c7.369,0,13.343,5.974,13.343,13.343v19.731
								c0,7.369-5.974,13.343-13.343,13.343h-23.42c-7.369,0-13.343,5.974-13.343,13.343v19.732c0,7.369,5.974,13.343,13.343,13.343
								h6.792c7.369,0,13.343,5.974,13.343,13.343v19.691c0,7.369-5.974,13.343-13.343,13.343h-19.691
								c-7.369,0-13.343,5.974-13.343,13.343v19.731c0,7.369,5.974,13.343,13.343,13.343h19.691c7.369,0,13.343,5.974,13.343,13.343
								v19.691c0,7.369-5.974,13.343-13.343,13.343h-6.792c-7.369,0-13.343,5.974-13.343,13.343v19.731
								c0,7.369,5.974,13.343,13.343,13.343h13.585c7.369,0,13.343,5.974,13.343,13.343v4.609v15.122
								c0,7.369-5.974,13.343-13.343,13.343h-183.4v-28.465v-17.952h-40.271v-46.417h33.478v-46.377H2386.688z"/>
						</g>
					</g>
				</g>
			</g>
			<g>
				<g>
					<g>
						<g>
							<rect x="2426.272" y="1419.239" width="399.934" height="3.275"/>
						</g>
					</g>
				</g>
			</g>
			<g>
				<g>
					<g>
						<g>
							<rect x="2399.586" y="1465.656" width="399.934" height="3.275"/>
						</g>
					</g>
				</g>
			</g>
			<g>
				<g>
					<g>
						<g>
							<rect x="2449.692" y="1512.074" width="399.934" height="3.275"/>
						</g>
					</g>
				</g>
			</g>
			<g>
				<g>
					<g>
						<g>
							<rect x="2399.586" y="1558.491" width="399.934" height="3.275"/>
						</g>
					</g>
				</g>
			</g>
			<g>
				<g>
					<g>
						<g>
							<rect x="2433.065" y="1604.908" width="399.933" height="3.275"/>
						</g>
					</g>
				</g>
			</g>
			<g>
				<g>
					<g>
						<g>
							<rect x="2386.688" y="1651.284" width="399.934" height="3.275"/>
						</g>
					</g>
				</g>
			</g>
			<g>
				<g>
					<g>
						<g>
							<rect x="2386.688" y="1697.701" width="399.934" height="3.275"/>
						</g>
					</g>
				</g>
			</g>
			<g>
				<g>
					<g>
						<g>
							<rect x="2433.065" y="1744.078" width="399.933" height="3.275"/>
						</g>
					</g>
				</g>
			</g>
			<g>
				<g>
					<g>
						<g>
							<rect x="2439.857" y="1790.495" width="399.934" height="3.275"/>
						</g>
					</g>
				</g>
			</g>
		</g>
		<g>
			<path style="fill:#FFFFFF;" d="M2582.566,1630.542c2.012,17.648,18.295,22.38,18.295,22.38s-16.282,4.732-18.295,22.38
				c-2.012-17.647-18.294-22.38-18.294-22.38S2580.554,1648.19,2582.566,1630.542z"/>
		</g>
		<g>
			<path style="fill:#FFFFFF;" d="M2691.309,1434.876c1.046,9.169,9.506,11.628,9.506,11.628s-8.46,2.459-9.506,11.628
				c-1.045-9.169-9.505-11.628-9.505-11.628S2690.264,1444.046,2691.309,1434.876z"/>
		</g>
		<g>
			<path style="fill:#FFFFFF;" d="M2703.768,1709.218c1.468,12.875,13.347,16.328,13.347,16.328s-11.879,3.452-13.347,16.328
				c-1.468-12.875-13.347-16.328-13.347-16.328S2702.3,1722.093,2703.768,1709.218z"/>
		</g>
	</g>
</g>
</svg>
